<?xml version="1.0"?>
<svg xmlns="http://www.w3.org/2000/svg" id="Line_Expand" data-name="Line Expand" viewBox="0 0 64 64"
    width="512" height="512">
    <path
        d="M62,58.1843V48.8157A2.9926,2.9926,0,0,0,61,43H55.8157A2.9635,2.9635,0,0,0,56,42a2.995,2.995,0,0,0-2-2.8157V37h3.1807L55.4316,26.5084A3.4776,3.4776,0,0,0,54,20.6632V16.3105l-2.6039-.9919L59.6924,12,32,.9229,4.3076,12,16,16.6771V29H12A7.9913,7.9913,0,0,0,7.3386,43.4884,10.4993,10.4993,0,0,0,10.5,64H61a2.9926,2.9926,0,0,0,1-5.8157ZM60,51H42v2H60v5H10.3228a4.5,4.5,0,0,1,0-9H60ZM52,39H12a2,2,0,0,1,0-4H23.9755A30.1154,30.1154,0,0,0,32,36a30.1148,30.1148,0,0,0,8.0245-1h9.1283l-.3335,2H52Zm-4.551-8H49.82l-.3334,2H44.8613A12.1476,12.1476,0,0,0,47.449,31Zm7.37,4H51.1807L52.44,27.4434a2.8,2.8,0,0,0,1.12,0ZM54.5,24A1.5,1.5,0,1,1,53,22.5,1.5017,1.5017,0,0,1,54.5,24ZM52,17.69v2.9737a3.4776,3.4776,0,0,0-1.4316,5.8452L50.153,29H48V16.6771l.6548-.262ZM32,3.0771,54.3076,12l-5.67,2.2679L32.356,8.0654l-.712,1.8692,14.2527,5.43L32,20.9229,9.6924,12Zm0,20,14-5.6v12.144C45.104,30.55,41.1553,34,32,34c-9.165,0-13.1123-3.458-14-4.3779V17.4771ZM6,37a6.0066,6.0066,0,0,1,6-6h4.551a12.1476,12.1476,0,0,0,2.5877,2H12a4,4,0,0,0,0,8H53a1,1,0,0,1,0,2H12A6.0066,6.0066,0,0,1,6,37ZM61,62H10.5a8.5,8.5,0,0,1,0-17H61a1,1,0,0,1,0,2H10.3228a6.5,6.5,0,0,0,0,13H61a1,1,0,0,1,0,2Z" />
    <rect x="10" y="54" width="28" height="2" />
</svg>