<svg width="24" height="22" viewBox="0 0 24 22" fill="none" xmlns="http://www.w3.org/2000/svg">
<path d="M0 10.44C0 11.0277 0.433561 11.4998 1.13689 11.4998C1.45484 11.4998 1.76315 11.336 2.03292 11.1144L11.5327 3.14652C11.8314 2.88639 12.1782 2.88639 12.4866 3.14652L21.9671 11.1144C22.2369 11.336 22.5452 11.4998 22.8727 11.4998C23.5183 11.4998 24 11.0951 24 10.4593C24 10.0931 23.8458 9.78482 23.5568 9.54395L20.8495 7.26053V3.14652C20.8495 2.71296 20.5604 2.42392 20.1269 2.42392H18.566C18.1325 2.42392 17.8338 2.71296 17.8338 3.14652V4.73625L13.5367 1.12324C12.6118 0.342831 11.4171 0.342831 10.4825 1.12324L0.443196 9.54395C0.154155 9.79446 0 10.122 0 10.44ZM3.21798 19.1594C3.21798 20.5853 4.14291 21.4621 5.62666 21.4621H18.3733C19.8571 21.4621 20.782 20.5853 20.782 19.1594V12.0779L12.6118 5.21798C12.2264 4.90004 11.764 4.90967 11.3978 5.21798L3.21798 12.0779V19.1594ZM14.5676 19.458H9.44199V13.4267C9.44199 12.9739 9.74067 12.6849 10.1935 12.6849H13.8161C14.269 12.6849 14.5676 12.9739 14.5676 13.4267V19.458Z" fill="#27AE60"/>
</svg>
