<?xml version="1.0" encoding="UTF-8" standalone="no"?>
<!-- Created with Inkscape (http://www.inkscape.org/) -->

<svg
   version="1.1"
   id="svg531"
   xml:space="preserve"
   width="682.66669"
   height="682.66669"
   viewBox="0 0 682.66669 682.66669"
   xmlns="http://www.w3.org/2000/svg"
   xmlns:svg="http://www.w3.org/2000/svg"><defs
     id="defs535"><clipPath
       clipPathUnits="userSpaceOnUse"
       id="clipPath561"><path
         d="M 0,512 H 512 V 0 H 0 Z"
         id="path559" /></clipPath></defs><g
     id="g537"
     transform="matrix(1.3333333,0,0,-1.3333333,0,682.66667)"><g
       id="g539"
       transform="translate(324.0151,309.771)"><path
         d="M 0,0 H 129.322"
         style="fill:none;stroke:#000000;stroke-width:15;stroke-linecap:round;stroke-linejoin:round;stroke-miterlimit:10;stroke-dasharray:none;stroke-opacity:1"
         id="path541" /></g><g
       id="g543"
       transform="translate(324.0151,264.5581)"><path
         d="M 0,0 H 129.322"
         style="fill:none;stroke:#000000;stroke-width:15;stroke-linecap:round;stroke-linejoin:round;stroke-miterlimit:10;stroke-dasharray:none;stroke-opacity:1"
         id="path545" /></g><g
       id="g547"
       transform="translate(324.0151,219.3447)"><path
         d="M 0,0 H 129.322"
         style="fill:none;stroke:#000000;stroke-width:15;stroke-linecap:round;stroke-linejoin:round;stroke-miterlimit:10;stroke-dasharray:none;stroke-opacity:1"
         id="path549" /></g><g
       id="g551"
       transform="translate(324.0151,174.1318)"><path
         d="M 0,0 H 64.661"
         style="fill:none;stroke:#000000;stroke-width:15;stroke-linecap:round;stroke-linejoin:round;stroke-miterlimit:10;stroke-dasharray:none;stroke-opacity:1"
         id="path553" /></g><g
       id="g555"><g
         id="g557"
         clip-path="url(#clipPath561)"><g
           id="g563"
           transform="translate(407.3389,501.8174)"><path
             d="M 0,0 C 0.078,-0.035 0.155,-0.071 0.232,-0.107 0.155,-0.071 0.078,-0.035 0,0 Z"
             style="fill:none;stroke:#000000;stroke-width:15;stroke-linecap:round;stroke-linejoin:round;stroke-miterlimit:10;stroke-dasharray:none;stroke-opacity:1"
             id="path565" /></g><g
           id="g567"
           transform="translate(411.1235,499.749)"><path
             d="M 0,0 C 0.061,-0.039 0.122,-0.079 0.182,-0.118 0.122,-0.079 0.061,-0.039 0,0 Z"
             style="fill:none;stroke:#000000;stroke-width:15;stroke-linecap:round;stroke-linejoin:round;stroke-miterlimit:10;stroke-dasharray:none;stroke-opacity:1"
             id="path569" /></g><g
           id="g571"
           transform="translate(494.5356,417.2036)"><path
             d="M 0,0 C 0.034,-0.039 0.068,-0.077 0.102,-0.115 0.068,-0.077 0.034,-0.039 0,0 Z"
             style="fill:none;stroke:#000000;stroke-width:15;stroke-linecap:round;stroke-linejoin:round;stroke-miterlimit:10;stroke-dasharray:none;stroke-opacity:1"
             id="path573" /></g><g
           id="g575"
           transform="translate(494.3008,417.4648)"><path
             d="M 0,0 C 0.034,-0.037 0.067,-0.074 0.101,-0.112 0.067,-0.074 0.034,-0.037 0,0 Z"
             style="fill:none;stroke:#000000;stroke-width:15;stroke-linecap:round;stroke-linejoin:round;stroke-miterlimit:10;stroke-dasharray:none;stroke-opacity:1"
             id="path577" /></g><g
           id="g579"
           transform="translate(414.6035,497.1216)"><path
             d="M 0,0 C 0.042,-0.037 0.084,-0.074 0.126,-0.112 0.084,-0.074 0.042,-0.037 0,0 Z"
             style="fill:none;stroke:#000000;stroke-width:15;stroke-linecap:round;stroke-linejoin:round;stroke-miterlimit:10;stroke-dasharray:none;stroke-opacity:1"
             id="path581" /></g><g
           id="g583"
           transform="translate(494.9976,416.6699)"><path
             d="M 0,0 C 0.033,-0.038 0.065,-0.077 0.098,-0.115 0.065,-0.077 0.033,-0.038 0,0 Z"
             style="fill:none;stroke:#000000;stroke-width:15;stroke-linecap:round;stroke-linejoin:round;stroke-miterlimit:10;stroke-dasharray:none;stroke-opacity:1"
             id="path585" /></g><g
           id="g587"
           transform="translate(495.2236,416.3999)"><path
             d="M 0,0 C 0.032,-0.039 0.064,-0.078 0.096,-0.117 0.064,-0.078 0.032,-0.039 0,0 Z"
             style="fill:none;stroke:#000000;stroke-width:15;stroke-linecap:round;stroke-linejoin:round;stroke-miterlimit:10;stroke-dasharray:none;stroke-opacity:1"
             id="path589" /></g><g
           id="g591"
           transform="translate(493.8228,417.979)"><path
             d="M 0,0 C 0.029,-0.031 0.059,-0.062 0.088,-0.094 0.059,-0.062 0.029,-0.031 0,0 Z"
             style="fill:none;stroke:#000000;stroke-width:15;stroke-linecap:round;stroke-linejoin:round;stroke-miterlimit:10;stroke-dasharray:none;stroke-opacity:1"
             id="path593" /></g><g
           id="g595"
           transform="translate(494.7661,416.9409)"><path
             d="M 0,0 C 0.034,-0.04 0.069,-0.08 0.103,-0.119 0.069,-0.08 0.034,-0.04 0,0 Z"
             style="fill:none;stroke:#000000;stroke-width:15;stroke-linecap:round;stroke-linejoin:round;stroke-miterlimit:10;stroke-dasharray:none;stroke-opacity:1"
             id="path597" /></g><g
           id="g599"
           transform="translate(415.1289,496.6489)"><path
             d="M 0,0 C 0.04,-0.037 0.08,-0.073 0.12,-0.11 0.08,-0.073 0.04,-0.037 0,0 Z"
             style="fill:none;stroke:#000000;stroke-width:15;stroke-linecap:round;stroke-linejoin:round;stroke-miterlimit:10;stroke-dasharray:none;stroke-opacity:1"
             id="path601" /></g><g
           id="g603"
           transform="translate(414.8672,496.8872)"><path
             d="M 0,0 C 0.041,-0.037 0.082,-0.074 0.124,-0.111 0.083,-0.074 0.041,-0.037 0,0 Z"
             style="fill:none;stroke:#000000;stroke-width:15;stroke-linecap:round;stroke-linejoin:round;stroke-miterlimit:10;stroke-dasharray:none;stroke-opacity:1"
             id="path605" /></g><g
           id="g607"
           transform="translate(498.3096,411.8643)"><path
             d="M 0,0 C 0.043,-0.078 0.085,-0.156 0.128,-0.234 0.085,-0.156 0.043,-0.078 0,0 Z"
             style="fill:none;stroke:#000000;stroke-width:15;stroke-linecap:round;stroke-linejoin:round;stroke-miterlimit:10;stroke-dasharray:none;stroke-opacity:1"
             id="path609" /></g><g
           id="g611"
           transform="translate(415.6694,496.1387)"><path
             d="M 0,0 C 0.028,-0.028 0.057,-0.055 0.085,-0.083 0.057,-0.055 0.028,-0.028 0,0 Z"
             style="fill:none;stroke:#000000;stroke-width:15;stroke-linecap:round;stroke-linejoin:round;stroke-miterlimit:10;stroke-dasharray:none;stroke-opacity:1"
             id="path613" /></g><g
           id="g615"
           transform="translate(498.6289,411.2695)"><path
             d="M 0,0 C 0.04,-0.076 0.079,-0.152 0.118,-0.229 0.079,-0.152 0.04,-0.076 0,0 Z"
             style="fill:none;stroke:#000000;stroke-width:15;stroke-linecap:round;stroke-linejoin:round;stroke-miterlimit:10;stroke-dasharray:none;stroke-opacity:1"
             id="path617" /></g><g
           id="g619"
           transform="translate(493.5796,418.231)"><path
             d="M 0,0 C 0.02,-0.021 0.04,-0.042 0.061,-0.062 0.04,-0.042 0.02,-0.021 0,0 Z"
             style="fill:none;stroke:#000000;stroke-width:15;stroke-linecap:round;stroke-linejoin:round;stroke-miterlimit:10;stroke-dasharray:none;stroke-opacity:1"
             id="path621" /></g><g
           id="g623"
           transform="translate(494.063,417.7236)"><path
             d="M 0,0 C 0.033,-0.036 0.066,-0.071 0.099,-0.107 0.066,-0.071 0.033,-0.035 0,0 Z"
             style="fill:none;stroke:#000000;stroke-width:15;stroke-linecap:round;stroke-linejoin:round;stroke-miterlimit:10;stroke-dasharray:none;stroke-opacity:1"
             id="path625" /></g><g
           id="g627"
           transform="translate(497.1533,413.7822)"><path
             d="M 0,0 C 0.038,-0.058 0.076,-0.116 0.114,-0.174 0.076,-0.116 0.038,-0.058 0,0 Z"
             style="fill:none;stroke:#000000;stroke-width:15;stroke-linecap:round;stroke-linejoin:round;stroke-miterlimit:10;stroke-dasharray:none;stroke-opacity:1"
             id="path629" /></g><g
           id="g631"
           transform="translate(496.9644,414.0669)"><path
             d="M 0,0 C 0.038,-0.057 0.076,-0.113 0.113,-0.17 0.076,-0.113 0.038,-0.057 0,0 Z"
             style="fill:none;stroke:#000000;stroke-width:15;stroke-linecap:round;stroke-linejoin:round;stroke-miterlimit:10;stroke-dasharray:none;stroke-opacity:1"
             id="path633" /></g><g
           id="g635"
           transform="translate(497.3389,413.4956)"><path
             d="M 0,0 C 0.038,-0.06 0.076,-0.119 0.114,-0.179 0.076,-0.119 0.038,-0.06 0,0 Z"
             style="fill:none;stroke:#000000;stroke-width:15;stroke-linecap:round;stroke-linejoin:round;stroke-miterlimit:10;stroke-dasharray:none;stroke-opacity:1"
             id="path637" /></g><g
           id="g639"
           transform="translate(497.5132,413.2192)"><path
             d="M 0,0 C 0.042,-0.067 0.083,-0.133 0.124,-0.2 0.083,-0.133 0.042,-0.067 0,0 Z"
             style="fill:none;stroke:#000000;stroke-width:15;stroke-linecap:round;stroke-linejoin:round;stroke-miterlimit:10;stroke-dasharray:none;stroke-opacity:1"
             id="path641" /></g><g
           id="g643"
           transform="translate(497.6665,412.9712)"><path
             d="M 0,0 C 0.212,-0.348 0.417,-0.699 0.614,-1.055 0.417,-0.699 0.212,-0.348 0,0 Z"
             style="fill:none;stroke:#000000;stroke-width:15;stroke-linecap:round;stroke-linejoin:round;stroke-miterlimit:10;stroke-dasharray:none;stroke-opacity:1"
             id="path645" /></g><g
           id="g647"
           transform="translate(496.7739,414.3467)"><path
             d="M 0,0 C 0.037,-0.053 0.073,-0.106 0.109,-0.16 0.073,-0.106 0.037,-0.053 0,0 Z"
             style="fill:none;stroke:#000000;stroke-width:15;stroke-linecap:round;stroke-linejoin:round;stroke-miterlimit:10;stroke-dasharray:none;stroke-opacity:1"
             id="path649" /></g><g
           id="g651"
           transform="translate(495.688,415.8228)"><path
             d="M 0,0 C 0.022,-0.029 0.045,-0.057 0.067,-0.085 0.045,-0.057 0.022,-0.028 0,0 Z"
             style="fill:none;stroke:#000000;stroke-width:15;stroke-linecap:round;stroke-linejoin:round;stroke-miterlimit:10;stroke-dasharray:none;stroke-opacity:1"
             id="path653" /></g><g
           id="g655"
           transform="translate(495.9634,415.4668)"><path
             d="M 0,0 C 0.032,-0.042 0.062,-0.083 0.094,-0.125 0.062,-0.083 0.032,-0.042 0,0 Z"
             style="fill:none;stroke:#000000;stroke-width:15;stroke-linecap:round;stroke-linejoin:round;stroke-miterlimit:10;stroke-dasharray:none;stroke-opacity:1"
             id="path657" /></g><g
           id="g659"
           transform="translate(496.1709,415.1904)"><path
             d="M 0,0 C 0.038,-0.051 0.075,-0.102 0.112,-0.152 0.075,-0.102 0.038,-0.051 0,0 Z"
             style="fill:none;stroke:#000000;stroke-width:15;stroke-linecap:round;stroke-linejoin:round;stroke-miterlimit:10;stroke-dasharray:none;stroke-opacity:1"
             id="path661" /></g><g
           id="g663"
           transform="translate(495.4492,416.123)"><path
             d="M 0,0 C 0.03,-0.037 0.06,-0.074 0.09,-0.111 0.06,-0.074 0.03,-0.037 0,0 Z"
             style="fill:none;stroke:#000000;stroke-width:15;stroke-linecap:round;stroke-linejoin:round;stroke-miterlimit:10;stroke-dasharray:none;stroke-opacity:1"
             id="path665" /></g><g
           id="g667"
           transform="translate(496.3721,414.916)"><path
             d="M 0,0 C 0.04,-0.055 0.079,-0.11 0.118,-0.165 0.079,-0.11 0.04,-0.055 0,0 Z"
             style="fill:none;stroke:#000000;stroke-width:15;stroke-linecap:round;stroke-linejoin:round;stroke-miterlimit:10;stroke-dasharray:none;stroke-opacity:1"
             id="path669" /></g><g
           id="g671"
           transform="translate(498.4707,411.5684)"><path
             d="M 0,0 C 0.042,-0.079 0.084,-0.157 0.125,-0.236 0.084,-0.157 0.042,-0.079 0,0 Z"
             style="fill:none;stroke:#000000;stroke-width:15;stroke-linecap:round;stroke-linejoin:round;stroke-miterlimit:10;stroke-dasharray:none;stroke-opacity:1"
             id="path673" /></g><g
           id="g675"
           transform="translate(496.5747,414.6328)"><path
             d="M 0,0 C 0.037,-0.052 0.073,-0.104 0.109,-0.156 0.073,-0.104 0.037,-0.052 0,0 Z"
             style="fill:none;stroke:#000000;stroke-width:15;stroke-linecap:round;stroke-linejoin:round;stroke-miterlimit:10;stroke-dasharray:none;stroke-opacity:1"
             id="path677" /></g><g
           id="g679"
           transform="translate(415.394,496.4019)"><path
             d="M 0,0 C 0.037,-0.035 0.073,-0.069 0.109,-0.104 0.073,-0.069 0.037,-0.035 0,0 Z"
             style="fill:none;stroke:#000000;stroke-width:15;stroke-linecap:round;stroke-linejoin:round;stroke-miterlimit:10;stroke-dasharray:none;stroke-opacity:1"
             id="path681" /></g><g
           id="g683"
           transform="translate(411.7061,499.3638)"><path
             d="M 0,0 C 0.056,-0.038 0.111,-0.076 0.167,-0.114 0.111,-0.076 0.056,-0.038 0,0 Z"
             style="fill:none;stroke:#000000;stroke-width:15;stroke-linecap:round;stroke-linejoin:round;stroke-miterlimit:10;stroke-dasharray:none;stroke-opacity:1"
             id="path685" /></g><g
           id="g687"
           transform="translate(410.8345,499.9336)"><path
             d="M 0,0 C 0.065,-0.041 0.13,-0.083 0.195,-0.124 0.13,-0.083 0.065,-0.041 0,0 Z"
             style="fill:none;stroke:#000000;stroke-width:15;stroke-linecap:round;stroke-linejoin:round;stroke-miterlimit:10;stroke-dasharray:none;stroke-opacity:1"
             id="path689" /></g><g
           id="g691"
           transform="translate(409.1597,500.9116)"><path
             d="M 0,0 C 0.075,-0.041 0.15,-0.082 0.226,-0.123 0.15,-0.082 0.075,-0.041 0,0 Z"
             style="fill:none;stroke:#000000;stroke-width:15;stroke-linecap:round;stroke-linejoin:round;stroke-miterlimit:10;stroke-dasharray:none;stroke-opacity:1"
             id="path693" /></g><g
           id="g695"
           transform="translate(409.4375,500.7593)"><path
             d="M 0,0 C 0.352,-0.195 0.701,-0.398 1.044,-0.608 0.701,-0.398 0.352,-0.195 0,0 Z"
             style="fill:none;stroke:#000000;stroke-width:15;stroke-linecap:round;stroke-linejoin:round;stroke-miterlimit:10;stroke-dasharray:none;stroke-opacity:1"
             id="path697" /></g><g
           id="g699"
           transform="translate(411.418,499.5571)"><path
             d="M 0,0 C 0.057,-0.038 0.113,-0.076 0.17,-0.114 0.113,-0.076 0.057,-0.038 0,0 Z"
             style="fill:none;stroke:#000000;stroke-width:15;stroke-linecap:round;stroke-linejoin:round;stroke-miterlimit:10;stroke-dasharray:none;stroke-opacity:1"
             id="path701" /></g><g
           id="g703"
           transform="translate(111.0269,61.1206)"><path
             d="m 0,0 v -24.035 c 0,-16.351 13.255,-29.606 29.606,-29.606 h 202.95"
             style="fill:none;stroke:#000000;stroke-width:15;stroke-linecap:round;stroke-linejoin:round;stroke-miterlimit:10;stroke-dasharray:none;stroke-opacity:1"
             id="path705" /></g><g
           id="g707"
           transform="translate(410.542,500.1152)"><path
             d="M 0,0 C 0.067,-0.042 0.135,-0.083 0.202,-0.125 0.135,-0.083 0.067,-0.042 0,0 Z"
             style="fill:none;stroke:#000000;stroke-width:15;stroke-linecap:round;stroke-linejoin:round;stroke-miterlimit:10;stroke-dasharray:none;stroke-opacity:1"
             id="path709" /></g><g
           id="g711"
           transform="translate(408.2642,501.3765)"><path
             d="M 0,0 C 0.072,-0.036 0.143,-0.071 0.214,-0.107 0.143,-0.071 0.072,-0.036 0,0 Z"
             style="fill:none;stroke:#000000;stroke-width:15;stroke-linecap:round;stroke-linejoin:round;stroke-miterlimit:10;stroke-dasharray:none;stroke-opacity:1"
             id="path713" /></g><g
           id="g715"
           transform="translate(407.9614,501.5254)"><path
             d="M 0,0 C 0.073,-0.036 0.146,-0.071 0.218,-0.107 0.146,-0.071 0.073,-0.036 0,0 Z"
             style="fill:none;stroke:#000000;stroke-width:15;stroke-linecap:round;stroke-linejoin:round;stroke-miterlimit:10;stroke-dasharray:none;stroke-opacity:1"
             id="path717" /></g><g
           id="g719"
           transform="translate(408.5679,501.2231)"><path
             d="M 0,0 C 0.074,-0.038 0.147,-0.076 0.221,-0.114 0.147,-0.076 0.074,-0.038 0,0 Z"
             style="fill:none;stroke:#000000;stroke-width:15;stroke-linecap:round;stroke-linejoin:round;stroke-miterlimit:10;stroke-dasharray:none;stroke-opacity:1"
             id="path721" /></g><g
           id="g723"
           transform="translate(324.0151,418.4434)"><path
             d="m 0,0 c 0,-4.766 -3.864,-8.63 -8.63,-8.63 h -148.787 c -4.766,0 -8.629,3.864 -8.629,8.63 v 28.743 c 0,4.766 3.863,8.63 8.629,8.63 H -8.63 c 4.766,0 8.63,-3.864 8.63,-8.63 z m 19.568,-410.964 h 128.811 c 16.351,0 29.606,13.255 29.606,29.606 v 360.465 c 0,4.373 -0.968,8.646 -2.784,12.533 0.042,-0.09 0.083,-0.18 0.124,-0.27 h -73.651 c -10.137,0 -18.355,8.218 -18.355,18.355 v 73.651 c -3.815,1.736 -7.991,2.66 -12.263,2.66 h -254.438 c -16.351,0 -29.606,-13.255 -29.606,-29.606 v -76.781"
             style="fill:none;stroke:#000000;stroke-width:15;stroke-linecap:round;stroke-linejoin:round;stroke-miterlimit:10;stroke-dasharray:none;stroke-opacity:1"
             id="path725" /></g><g
           id="g727"
           transform="translate(408.8594,501.0718)"><path
             d="M 0,0 C 0.075,-0.04 0.15,-0.079 0.226,-0.12 0.15,-0.08 0.075,-0.04 0,0 Z"
             style="fill:none;stroke:#000000;stroke-width:15;stroke-linecap:round;stroke-linejoin:round;stroke-miterlimit:10;stroke-dasharray:none;stroke-opacity:1"
             id="path729" /></g><g
           id="g731"
           transform="translate(411.9912,499.1675)"><path
             d="M 0,0 C 0.055,-0.038 0.109,-0.076 0.163,-0.114 0.109,-0.076 0.054,-0.038 0,0 Z"
             style="fill:none;stroke:#000000;stroke-width:15;stroke-linecap:round;stroke-linejoin:round;stroke-miterlimit:10;stroke-dasharray:none;stroke-opacity:1"
             id="path733" /></g><g
           id="g735"
           transform="translate(413.2573,498.2349)"><path
             d="M 0,0 C 0.036,-0.027 0.07,-0.055 0.106,-0.083 0.07,-0.055 0.036,-0.027 0,0 Z"
             style="fill:none;stroke:#000000;stroke-width:15;stroke-linecap:round;stroke-linejoin:round;stroke-miterlimit:10;stroke-dasharray:none;stroke-opacity:1"
             id="path737" /></g><g
           id="g739"
           transform="translate(407.6553,501.6714)"><path
             d="M 0,0 C 0.071,-0.034 0.142,-0.067 0.213,-0.102 0.142,-0.067 0.071,-0.034 0,0 Z"
             style="fill:none;stroke:#000000;stroke-width:15;stroke-linecap:round;stroke-linejoin:round;stroke-miterlimit:10;stroke-dasharray:none;stroke-opacity:1"
             id="path741" /></g><g
           id="g743"
           transform="translate(499.0801,410.3706)"><path
             d="M 0,0 C 0.04,-0.083 0.079,-0.166 0.118,-0.25 0.079,-0.166 0.04,-0.083 0,0 Z"
             style="fill:none;stroke:#000000;stroke-width:15;stroke-linecap:round;stroke-linejoin:round;stroke-miterlimit:10;stroke-dasharray:none;stroke-opacity:1"
             id="path745" /></g><g
           id="g747"
           transform="translate(413.8037,497.7993)"><path
             d="M 0,0 C 0.042,-0.034 0.083,-0.068 0.124,-0.102 0.083,-0.068 0.042,-0.034 0,0 Z"
             style="fill:none;stroke:#000000;stroke-width:15;stroke-linecap:round;stroke-linejoin:round;stroke-miterlimit:10;stroke-dasharray:none;stroke-opacity:1"
             id="path749" /></g><g
           id="g751"
           transform="translate(414.0713,497.5776)"><path
             d="M 0,0 C 0.043,-0.036 0.086,-0.072 0.128,-0.108 0.086,-0.072 0.043,-0.036 0,0 Z"
             style="fill:none;stroke:#000000;stroke-width:15;stroke-linecap:round;stroke-linejoin:round;stroke-miterlimit:10;stroke-dasharray:none;stroke-opacity:1"
             id="path753" /></g><g
           id="g755"
           transform="translate(414.3379,497.3521)"><path
             d="M 0,0 0.13,-0.113 Z"
             style="fill:none;stroke:#000000;stroke-width:15;stroke-linecap:round;stroke-linejoin:round;stroke-miterlimit:10;stroke-dasharray:none;stroke-opacity:1"
             id="path757" /></g><g
           id="g759"
           transform="translate(413.5293,498.021)"><path
             d="M 0,0 C 0.042,-0.033 0.083,-0.066 0.124,-0.1 0.083,-0.066 0.042,-0.033 0,0 Z"
             style="fill:none;stroke:#000000;stroke-width:15;stroke-linecap:round;stroke-linejoin:round;stroke-miterlimit:10;stroke-dasharray:none;stroke-opacity:1"
             id="path761" /></g><g
           id="g763"
           transform="translate(412.2725,498.9692)"><path
             d="M 0,0 C 0.055,-0.04 0.11,-0.079 0.165,-0.118 0.11,-0.079 0.055,-0.04 0,0 Z"
             style="fill:none;stroke:#000000;stroke-width:15;stroke-linecap:round;stroke-linejoin:round;stroke-miterlimit:10;stroke-dasharray:none;stroke-opacity:1"
             id="path765" /></g><g
           id="g767"
           transform="translate(412.8296,498.561)"><path
             d="M 0,0 C 0.054,-0.04 0.108,-0.081 0.162,-0.121 0.108,-0.08 0.054,-0.04 0,0 Z"
             style="fill:none;stroke:#000000;stroke-width:15;stroke-linecap:round;stroke-linejoin:round;stroke-miterlimit:10;stroke-dasharray:none;stroke-opacity:1"
             id="path769" /></g><g
           id="g771"
           transform="translate(498.7861,410.9653)"><path
             d="M 0,0 C 0.039,-0.077 0.077,-0.153 0.115,-0.23 0.077,-0.153 0.039,-0.077 0,0 Z"
             style="fill:none;stroke:#000000;stroke-width:15;stroke-linecap:round;stroke-linejoin:round;stroke-miterlimit:10;stroke-dasharray:none;stroke-opacity:1"
             id="path773" /></g><g
           id="g775"
           transform="translate(498.9355,410.667)"><path
             d="M 0,0 C 0.039,-0.079 0.077,-0.157 0.115,-0.235 0.077,-0.157 0.039,-0.079 0,0 Z"
             style="fill:none;stroke:#000000;stroke-width:15;stroke-linecap:round;stroke-linejoin:round;stroke-miterlimit:10;stroke-dasharray:none;stroke-opacity:1"
             id="path777" /></g><g
           id="g779"
           transform="translate(412.5527,498.7666)"><path
             d="M 0,0 C 0.054,-0.04 0.108,-0.08 0.163,-0.12 0.108,-0.08 0.054,-0.04 0,0 Z"
             style="fill:none;stroke:#000000;stroke-width:15;stroke-linecap:round;stroke-linejoin:round;stroke-miterlimit:10;stroke-dasharray:none;stroke-opacity:1"
             id="path781" /></g><g
           id="g783"
           transform="translate(425.6895,409.8135)"><path
             d="M 0,0 H 73.651 C 73.61,0.09 73.568,0.18 73.526,0.27 73.521,0.283 73.515,0.295 73.509,0.308 73.47,0.391 73.43,0.474 73.391,0.557 c -0.01,0.02 -0.02,0.041 -0.03,0.061 -0.038,0.079 -0.076,0.157 -0.115,0.236 -0.011,0.022 -0.022,0.045 -0.034,0.068 -0.038,0.077 -0.077,0.153 -0.115,0.23 -0.014,0.025 -0.026,0.05 -0.039,0.076 -0.039,0.076 -0.079,0.152 -0.119,0.228 -0.01,0.021 -0.022,0.042 -0.032,0.063 -0.042,0.079 -0.084,0.157 -0.126,0.236 -0.01,0.02 -0.022,0.041 -0.033,0.061 -0.042,0.079 -0.085,0.157 -0.128,0.235 -0.01,0.017 -0.019,0.035 -0.029,0.052 -0.197,0.355 -0.402,0.707 -0.614,1.055 -0.01,0.016 -0.019,0.031 -0.029,0.048 -0.041,0.066 -0.083,0.133 -0.124,0.2 -0.02,0.032 -0.04,0.065 -0.061,0.097 -0.037,0.06 -0.075,0.12 -0.114,0.179 -0.024,0.038 -0.047,0.075 -0.071,0.112 -0.038,0.059 -0.076,0.117 -0.114,0.175 -0.025,0.038 -0.05,0.076 -0.076,0.114 -0.037,0.057 -0.075,0.114 -0.113,0.17 -0.027,0.04 -0.054,0.08 -0.081,0.121 -0.036,0.053 -0.073,0.106 -0.11,0.159 -0.029,0.044 -0.06,0.087 -0.09,0.131 -0.036,0.051 -0.072,0.104 -0.109,0.155 -0.028,0.04 -0.056,0.079 -0.084,0.119 -0.04,0.055 -0.079,0.11 -0.118,0.165 -0.03,0.04 -0.06,0.081 -0.09,0.122 -0.037,0.05 -0.074,0.101 -0.112,0.152 C 70.444,5.428 70.405,5.479 70.368,5.529 70.336,5.57 70.306,5.612 70.274,5.653 70.205,5.744 70.136,5.834 70.066,5.924 70.044,5.952 70.021,5.98 69.999,6.009 69.949,6.072 69.9,6.135 69.85,6.198 69.82,6.235 69.79,6.272 69.76,6.31 69.717,6.363 69.674,6.417 69.63,6.47 69.599,6.509 69.566,6.547 69.534,6.586 69.492,6.638 69.449,6.69 69.406,6.741 69.374,6.78 69.341,6.818 69.308,6.856 69.266,6.907 69.223,6.958 69.18,7.008 69.146,7.048 69.111,7.087 69.077,7.127 69.034,7.177 68.991,7.226 68.948,7.275 68.914,7.313 68.88,7.352 68.846,7.39 68.802,7.44 68.757,7.49 68.712,7.54 68.679,7.577 68.646,7.614 68.611,7.651 68.565,7.702 68.519,7.753 68.473,7.803 68.439,7.839 68.407,7.875 68.374,7.91 68.323,7.964 68.272,8.018 68.222,8.072 68.192,8.103 68.163,8.134 68.133,8.166 68.073,8.229 68.012,8.292 67.951,8.355 67.93,8.376 67.91,8.397 67.89,8.417 67.807,8.502 67.724,8.587 67.639,8.671 L -9.684,85.994 c -0.083,0.084 -0.166,0.166 -0.251,0.248 -0.028,0.028 -0.057,0.055 -0.085,0.083 -0.055,0.053 -0.11,0.107 -0.166,0.16 -0.037,0.035 -0.073,0.069 -0.109,0.103 -0.049,0.046 -0.097,0.092 -0.146,0.137 -0.039,0.037 -0.08,0.074 -0.12,0.11 -0.045,0.043 -0.092,0.085 -0.138,0.127 -0.041,0.038 -0.082,0.075 -0.123,0.112 -0.046,0.041 -0.092,0.082 -0.137,0.122 -0.042,0.038 -0.085,0.075 -0.127,0.112 -0.045,0.04 -0.09,0.079 -0.135,0.118 l -0.131,0.113 c -0.045,0.039 -0.092,0.078 -0.138,0.117 -0.042,0.036 -0.085,0.073 -0.128,0.108 -0.048,0.04 -0.096,0.08 -0.144,0.12 -0.041,0.033 -0.082,0.068 -0.124,0.102 -0.05,0.041 -0.1,0.081 -0.151,0.122 -0.041,0.033 -0.082,0.066 -0.123,0.1 -0.055,0.043 -0.111,0.087 -0.166,0.13 -0.036,0.028 -0.07,0.056 -0.106,0.083 -0.089,0.069 -0.177,0.138 -0.266,0.205 -0.054,0.041 -0.108,0.082 -0.162,0.122 -0.038,0.028 -0.076,0.057 -0.114,0.085 -0.054,0.041 -0.109,0.081 -0.163,0.12 -0.038,0.028 -0.077,0.057 -0.115,0.085 -0.055,0.039 -0.11,0.078 -0.165,0.118 -0.04,0.028 -0.079,0.056 -0.118,0.084 -0.054,0.038 -0.109,0.076 -0.163,0.114 l -0.119,0.082 c -0.055,0.039 -0.111,0.076 -0.166,0.114 -0.039,0.027 -0.079,0.054 -0.119,0.08 -0.056,0.038 -0.113,0.076 -0.169,0.114 -0.038,0.024 -0.076,0.049 -0.113,0.073 -0.06,0.04 -0.121,0.079 -0.182,0.119 -0.031,0.02 -0.062,0.04 -0.094,0.06 -0.065,0.042 -0.13,0.083 -0.195,0.124 -0.03,0.019 -0.06,0.038 -0.09,0.056 -0.068,0.042 -0.135,0.084 -0.202,0.126 -0.02,0.012 -0.041,0.024 -0.061,0.036 -0.343,0.21 -0.692,0.412 -1.044,0.608 -0.017,0.01 -0.035,0.019 -0.052,0.029 -0.075,0.042 -0.151,0.083 -0.226,0.123 -0.025,0.014 -0.05,0.027 -0.074,0.041 -0.076,0.04 -0.151,0.08 -0.226,0.119 -0.024,0.013 -0.047,0.025 -0.071,0.038 -0.074,0.038 -0.147,0.076 -0.221,0.114 -0.029,0.015 -0.059,0.03 -0.089,0.046 -0.071,0.036 -0.143,0.071 -0.214,0.107 -0.028,0.014 -0.056,0.028 -0.085,0.042 -0.072,0.036 -0.145,0.071 -0.218,0.107 -0.031,0.015 -0.062,0.03 -0.093,0.044 -0.071,0.035 -0.142,0.068 -0.213,0.102 -0.028,0.013 -0.056,0.026 -0.085,0.039 -0.077,0.036 -0.154,0.072 -0.232,0.107 -0.001,10e-4 -0.003,10e-4 -0.004,0.002 V 18.355 C -18.355,8.218 -10.137,0 0,0 Z"
             style="fill:none;stroke:#000000;stroke-width:15;stroke-linecap:round;stroke-linejoin:round;stroke-miterlimit:10;stroke-dasharray:none;stroke-opacity:1"
             id="path785" /></g><g
           id="g787"
           transform="translate(233.5029,121.042)"><path
             d="M 0,0 23.435,-23.435 46.207,-0.663 22.772,22.772 C 19.471,18.603 15.895,14.58 12.043,10.729 8.192,6.877 4.169,3.301 0,0 Z"
             style="fill:none;stroke:#000000;stroke-width:15;stroke-linecap:round;stroke-linejoin:round;stroke-miterlimit:10;stroke-dasharray:none;stroke-opacity:1"
             id="path789" /></g><g
           id="g791"
           transform="translate(362.1479,52.2993)"><path
             d="m 0,0 -68.185,68.184 c -3.907,3.907 -10.241,3.907 -14.148,0 l -22.981,-22.981 c -3.908,-3.907 -3.908,-10.242 0,-14.149 L -37.13,-37.13 c 5.127,-5.127 11.846,-7.69 18.565,-7.69 6.719,0 13.438,2.563 18.565,7.69 10.253,10.253 10.253,26.877 0,37.13 z"
             style="fill:none;stroke:#000000;stroke-width:15;stroke-linecap:round;stroke-linejoin:round;stroke-miterlimit:10;stroke-dasharray:none;stroke-opacity:1"
             id="path793" /></g><g
           id="g795"
           transform="translate(233.5029,121.042)"><path
             d="m 0,0 c 4.169,3.301 8.192,6.877 12.043,10.729 3.852,3.851 7.428,7.874 10.729,12.043 42.89,54.169 39.314,133.082 -10.729,183.124 -36.433,36.434 -88.169,48.237 -134.519,35.411 -22.212,-6.147 -43.188,-17.951 -60.648,-35.411 -53.894,-53.894 -53.894,-141.273 0,-195.167 17.46,-17.461 38.436,-29.265 60.648,-35.412 C -81.026,-36.153 -35.269,-27.925 0,0 Z"
             style="fill:none;stroke:#000000;stroke-width:15;stroke-linecap:round;stroke-linejoin:round;stroke-miterlimit:10;stroke-dasharray:none;stroke-opacity:1"
             id="path797" /></g><g
           id="g799"
           transform="translate(315.3848,455.8164)"><path
             d="m 0,0 h -148.786 c -4.766,0 -8.63,-3.864 -8.63,-8.63 v -28.743 c 0,-4.766 3.864,-8.63 8.63,-8.63 H 0 c 4.767,0 8.63,3.864 8.63,8.63 V -8.63 C 8.63,-3.864 4.767,0 0,0 Z"
             style="fill:none;stroke:#000000;stroke-width:15;stroke-linecap:round;stroke-linejoin:round;stroke-miterlimit:10;stroke-dasharray:none;stroke-opacity:1"
             id="path801" /></g><g
           id="g803"
           transform="translate(41.1147,245.7891)"><path
             d="m 0,0 c 3.36,21.961 13.497,43.087 30.412,60.001 42.214,42.215 110.658,42.215 152.873,0 42.214,-42.214 42.214,-110.658 0,-152.873 -42.215,-42.214 -110.659,-42.214 -152.873,0 C 14.06,-76.52 4.042,-56.233 0.358,-35.06"
             style="fill:none;stroke:#000000;stroke-width:15;stroke-linecap:round;stroke-linejoin:round;stroke-miterlimit:10;stroke-dasharray:none;stroke-opacity:1"
             id="path805" /></g><g
           id="g807"
           transform="translate(219.4785,148.291)"><path
             d="m 0,0 c 0.162,10.334 -5.579,19.167 -15.061,23.341 -8.728,3.842 -25.205,6.273 -33.316,7.291 l -0.049,-0.061 c -12.168,-15.22 -35.292,-15.289 -47.549,-0.14 -8.103,-1.086 -24.559,-3.656 -33.254,-7.571 -9.037,-4.072 -14.239,-12.968 -14.428,-22.302"
             style="fill:none;stroke:#000000;stroke-width:15;stroke-linecap:round;stroke-linejoin:round;stroke-miterlimit:10;stroke-dasharray:none;stroke-opacity:1"
             id="path809" /></g><g
           id="g811"
           transform="translate(191.8276,260.2324)"><path
             d="m 0,0 v 12.26 c 0,6.011 -4.873,10.883 -10.883,10.883 h -0.367 c -2.029,0 -3.675,1.646 -3.675,3.675 0,6.011 -4.872,10.884 -10.883,10.884 h -36.203 c -14.551,0 -26.347,-11.797 -26.347,-26.348 V -8.254"
             style="fill:none;stroke:#000000;stroke-width:15;stroke-linecap:round;stroke-linejoin:round;stroke-miterlimit:10;stroke-dasharray:none;stroke-opacity:1"
             id="path813" /></g><g
           id="g815"
           transform="translate(191.8276,260.2324)"><path
             d="m 0,0 -17.265,1.619 c -7.326,0.687 -14.677,-1.019 -20.952,-4.863 -5.35,-3.277 -11.501,-5.01 -17.775,-5.01 h -32.366 v -15.634 c 0,-3.165 2.566,-5.73 5.73,-5.73 0.983,0 1.81,-0.758 1.871,-1.74 1.189,-19.172 17.106,-34.356 36.578,-34.356 19.49,0 35.418,15.211 36.536,34.408 0.056,0.952 0.855,1.688 1.809,1.688 h 0.093 c 3.218,0 5.821,2.609 5.799,5.82 C 0,-15.172 0,0 0,0 Z"
             style="fill:none;stroke:#000000;stroke-width:15;stroke-linecap:round;stroke-linejoin:round;stroke-miterlimit:10;stroke-dasharray:none;stroke-opacity:1"
             id="path817" /></g><g
           id="g819"
           transform="translate(171.0527,178.8623)"><path
             d="M 0,0 0.048,0.061 C -2.671,0.402 -4.715,2.705 -4.727,5.446 L -4.792,20.729"
             style="fill:none;stroke:#000000;stroke-width:15;stroke-linecap:round;stroke-linejoin:round;stroke-miterlimit:10;stroke-dasharray:none;stroke-opacity:1"
             id="path821" /></g><g
           id="g823"
           transform="translate(128.166,200.1206)"><path
             d="m 0,0 0.067,-15.973 c 0.012,-2.74 -2.013,-5.061 -4.73,-5.425"
             style="fill:none;stroke:#000000;stroke-width:15;stroke-linecap:round;stroke-linejoin:round;stroke-miterlimit:10;stroke-dasharray:none;stroke-opacity:1"
             id="path825" /></g></g></g></g></svg>
