<svg width="24" height="24" viewBox="0 0 24 24" fill="none" xmlns="http://www.w3.org/2000/svg">
<path d="M1.02857 24C0.925714 24 0.72 24 0.617143 23.8971C0.205714 23.7943 0 23.3828 0 22.9714V7.95427C0 5.4857 2.05714 3.42856 4.52571 3.42856H16.1486C18.5143 3.42856 20.5714 5.4857 20.5714 7.95427V15.4628C20.5714 17.9314 18.5143 19.9886 16.0457 19.9886H7.71429C6.37714 19.9886 5.04 20.5028 4.11429 21.4286L1.74857 23.7943C1.54286 23.8971 1.33714 24 1.02857 24ZM4.52571 5.4857C3.18857 5.4857 2.05714 6.61713 2.05714 7.95427V20.5028L2.67429 19.8857C4.01143 18.5486 5.86286 17.8286 7.71429 17.8286H16.1486C17.4857 17.8286 18.6171 16.6971 18.6171 15.36V7.95427C18.5143 6.61713 17.3829 5.4857 16.0457 5.4857H4.52571Z" fill="#828282"/>
<rect x="14.9999" y="1.28571" width="7.71429" height="7.71429" rx="3.85714" fill="#27AE60"/>
<rect x="14.9999" y="1.28571" width="7.71429" height="7.71429" rx="3.85714" stroke="#FAFAFA" stroke-width="2.57143"/>
</svg>
