<svg width="112" height="113" viewBox="0 0 112 113" fill="none" xmlns="http://www.w3.org/2000/svg">
<g clip-path="url(#clip0_131_832)">
<path d="M55.7409 0.707764C24.9963 0.707764 0 25.7041 0 56.4486C0 87.1932 24.9963 112.189 55.7409 112.189C86.4855 112.189 111.482 87.1932 111.482 56.4486C111.482 25.7041 86.4855 0.707764 55.7409 0.707764ZM28.5672 11.7688C35.9703 15.8623 41.7186 19.6074 43.2863 21.1751C45.9862 23.9621 48.9475 28.404 48.9475 30.6685C48.9475 32.8458 48.8604 36.7651 48.7733 38.9425L43.5476 38.1586C41.8057 35.3716 39.1928 31.5394 35.5348 25.7911L33.5316 22.6557C33.009 21.8719 31.9639 21.6106 31.093 22.1332C30.3091 22.6557 30.0478 23.7009 30.5704 24.5718L32.5736 27.7072C44.2443 45.7359 44.2443 45.7359 45.7249 48.0875C47.8152 51.3971 46.8572 54.0099 45.2895 54.968C42.9379 56.4486 40.8476 55.5777 39.0186 53.4874C38.6702 53.139 38.4089 52.7906 37.9735 52.0939C37.2767 51.1358 36.3187 49.6552 34.2284 47.0423C33.4445 46.0843 25.4318 36.7651 24.4737 35.8071C23.1673 34.5006 21.4254 34.0652 19.5093 33.6297C16.8965 33.1071 13.8481 32.4975 11.1482 29.362C15.4158 22.2202 21.4254 16.2107 28.5672 11.7688ZM15.9384 36.4167C16.9835 36.678 18.8996 37.1135 18.9867 37.1135C18.5513 39.7264 17.9416 45.4746 19.3351 47.3036C19.6835 47.7391 22.1222 51.5713 22.8189 52.6164C22.6447 53.0519 22.2964 53.5745 21.5125 53.9229C20.3803 54.4454 19.4222 54.097 18.8125 53.139C17.6803 51.3971 13.761 43.5585 13.6739 42.0779C13.761 41.2941 14.8062 38.6812 15.9384 36.4167ZM25.5189 50.2649C24.9092 49.3939 22.6447 45.823 22.2093 45.2133C21.8609 44.2553 22.0351 40.7715 22.2964 38.5941C22.4705 38.8554 22.7318 39.0296 22.9931 39.378C24.2124 40.6844 26.0414 42.6876 28.3059 45.3875L25.5189 50.2649ZM3.4838 56.4486C3.4838 47.8262 5.57409 39.7264 9.31918 32.5846C10.4514 33.7168 11.5837 34.5007 12.7159 35.1103C11.8449 37.0264 10.3643 40.4231 10.3643 42.165C10.3643 44.865 15.2416 54.0099 16.0255 55.1422C17.0706 56.797 18.8125 57.6679 20.6415 57.6679H21.3383L17.8545 63.6775C17.3319 64.5485 17.6803 65.5936 18.4642 66.0291L30.3091 72.9096C30.5704 73.0838 30.9188 73.1709 31.1801 73.1709C31.7897 73.1709 32.3994 72.8225 32.6607 72.2999C33.1832 71.429 32.8349 70.3838 32.051 69.9483L21.7738 63.9388L30.8317 48.3488C31.093 48.6971 31.3542 48.9584 31.6155 49.3068C33.6187 51.8326 34.5768 53.2261 35.2735 54.1841C35.7961 54.968 36.1445 55.4906 36.7541 56.0131C38.9315 58.3647 40.4121 58.8873 42.3282 59.1486C44.5927 59.4969 46.7701 58.626 47.9023 57.4937C50.341 55.1422 50.9506 52.3551 50.1668 49.3939L52.2571 50.5261C52.5184 50.7003 52.7796 50.7874 53.128 50.7874C53.7377 50.7874 54.3474 50.439 54.6086 49.9165C55.0441 49.0455 54.7828 48.0004 53.9119 47.5649L47.1185 43.7327C46.8572 43.2973 46.5088 42.7747 46.0733 42.165L58.9634 44.2553H59.2247C60.0956 44.2553 60.7924 43.6456 60.9666 42.7747C61.1408 41.8166 60.444 40.9457 59.5731 40.7715L52.2571 39.5522C52.3442 37.4619 52.4313 33.1071 52.4313 30.6685C52.4313 26.4879 48.0765 21.0009 45.812 18.6493C43.5476 16.3849 36.58 12.2914 32.1381 9.76565C39.2799 6.19475 47.2926 4.19157 55.7409 4.19157C69.5019 4.19157 82.0436 9.59146 91.3628 18.301L17.5932 92.1576C8.8837 82.7513 3.4838 70.2096 3.4838 56.4486ZM55.7409 108.706C41.9798 108.706 29.4382 103.306 20.119 94.5963L93.8885 20.7396C102.598 30.1459 107.998 42.6876 107.998 56.4486C107.998 85.2771 84.5694 108.706 55.7409 108.706Z" fill="#1C1C1C"/>
<path d="M99.0266 48.5233C98.7653 48.1749 98.3298 47.9136 97.8944 47.8265L76.7303 44.0814C75.7722 43.9072 74.9013 44.5169 74.7271 45.4749C74.5529 46.433 75.1625 47.3039 76.1206 47.4781L95.4557 50.8748L90.0558 77.9614L82.914 76.7421L87.5301 68.3809C87.9655 67.51 87.7042 66.4649 86.8333 66.0294L67.1498 54.9683C66.2788 54.5328 65.2337 54.7941 64.7982 55.6651C64.3628 56.536 64.624 57.5812 65.495 58.0166L83.785 68.2938L70.5465 92.1579L44.1567 76.9163C43.2857 76.3937 42.2406 76.7421 41.8051 77.5259C41.2825 78.3969 41.6309 79.442 42.4148 79.8775L70.1981 95.9901C71.0691 96.4256 72.1142 96.2514 72.6368 95.2933L81.085 79.9646L91.1009 81.6194H91.3622C92.1461 81.6194 92.93 81.0097 93.1041 80.2259L99.2008 49.7426C99.375 49.3942 99.2879 48.8716 99.0266 48.5233Z" fill="#1C1C1C"/>
</g>
<defs>
<clipPath id="clip0_131_832">
<rect width="111.482" height="111.482" fill="white" transform="translate(0 0.707764)"/>
</clipPath>
</defs>
</svg>
