<svg width="32" height="32" viewBox="0 0 32 32" fill="none" xmlns="http://www.w3.org/2000/svg">
<path d="M16 28.7969C22.7148 28.7969 28.2461 23.2539 28.2461 16.5391C28.2461 9.82422 22.7031 4.29297 16 4.29297C9.28516 4.29297 3.75391 9.82422 3.75391 16.5391C3.75391 23.2539 9.28516 28.7969 16 28.7969ZM16 20.6406C12.8477 20.6406 10.4102 21.7539 9.12109 23.1016C7.50391 21.3906 6.51953 19.0938 6.51953 16.5391C6.51953 11.2773 10.7266 7.04688 16 7.04688C21.2617 7.04688 25.4922 11.2773 25.5039 16.5391C25.5039 19.0938 24.5078 21.4023 22.8906 23.1016C21.6016 21.7539 19.1641 20.6406 16 20.6406ZM16 18.7773C18.2852 18.7891 20.0547 16.8438 20.0547 14.3359C20.0547 11.9688 18.2617 9.97656 16 9.97656C13.7383 9.97656 11.9336 11.9688 11.957 14.3359C11.957 16.8438 13.7266 18.7656 16 18.7773Z" fill="#828282"/>
</svg>
