<?xml version="1.0" encoding="UTF-8" standalone="no"?>
<!-- Created with Inkscape (http://www.inkscape.org/) -->

<svg
   version="1.1"
   id="svg1587"
   xml:space="preserve"
   width="682.66669"
   height="682.66669"
   viewBox="0 0 682.66669 682.66669"
   xmlns="http://www.w3.org/2000/svg"
   xmlns:svg="http://www.w3.org/2000/svg"><defs
     id="defs1591"><clipPath
       clipPathUnits="userSpaceOnUse"
       id="clipPath1601"><path
         d="M 0,512 H 512 V 0 H 0 Z"
         id="path1599" /></clipPath></defs><g
     id="g1593"
     transform="matrix(1.3333333,0,0,-1.3333333,0,682.66667)"><g
       id="g1595"><g
         id="g1597"
         clip-path="url(#clipPath1601)"><g
           id="g1603"
           transform="translate(457.3511,414.1484)"><path
             d="m 0,0 c 28.035,-14.765 47.149,-44.187 47.149,-78.074 0,-28.419 -13.443,-53.698 -34.317,-69.825"
             style="fill:none;stroke:#000000;stroke-width:15;stroke-linecap:round;stroke-linejoin:round;stroke-miterlimit:10;stroke-dasharray:none;stroke-opacity:1"
             id="path1605" /></g><g
           id="g1607"
           transform="translate(422.4233,218.1353)"><path
             d="m 0,0 c 1.252,-5.917 1.911,-12.053 1.911,-18.343 0,-48.702 -39.481,-88.183 -88.183,-88.183 -4.063,0 -8.063,0.275 -11.98,0.807"
             style="fill:none;stroke:#000000;stroke-width:15;stroke-linecap:round;stroke-linejoin:round;stroke-miterlimit:10;stroke-dasharray:none;stroke-opacity:1"
             id="path1609" /></g><g
           id="g1611"
           transform="translate(257.4331,425.7397)"><path
             d="m 0,0 c 11.284,18.349 31.547,30.584 54.668,30.584 20.235,0 38.281,-9.372 50.035,-24.01"
             style="fill:none;stroke:#000000;stroke-width:15;stroke-linecap:round;stroke-linejoin:round;stroke-miterlimit:10;stroke-dasharray:none;stroke-opacity:1"
             id="path1613" /></g><g
           id="g1615"
           transform="translate(343.7856,450.2075)"><path
             d="m 0,0 c 11.759,13.568 29.118,22.149 48.482,22.149 35.419,0 64.133,-28.713 64.133,-64.132 0,-7.777 -1.384,-15.229 -3.919,-22.126"
             style="fill:none;stroke:#000000;stroke-width:15;stroke-linecap:round;stroke-linejoin:round;stroke-miterlimit:10;stroke-dasharray:none;stroke-opacity:1"
             id="path1617" /></g><g
           id="g1619"
           transform="translate(463.522,280.5249)"><path
             d="m 0,0 c 5.662,-9.56 8.912,-20.717 8.912,-32.633 0,-29.841 -20.381,-54.922 -47.982,-62.082"
             style="fill:none;stroke:#000000;stroke-width:15;stroke-linecap:round;stroke-linejoin:round;stroke-miterlimit:10;stroke-dasharray:none;stroke-opacity:1"
             id="path1621" /></g><g
           id="g1623"
           transform="translate(343.8838,110.0371)"><path
             d="m 0,0 c 0.188,-2.123 0.284,-4.272 0.284,-6.444 0,-34.146 -23.721,-62.752 -55.583,-70.239"
             style="fill:none;stroke:#000000;stroke-width:15;stroke-linecap:round;stroke-linejoin:round;stroke-miterlimit:10;stroke-dasharray:none;stroke-opacity:1"
             id="path1625" /></g><g
           id="g1627"
           transform="translate(255.9868,392.187)"><path
             d="m 0,0 0.02,36.17 h -0.042 c -28.302,35.014 -73.109,56.134 -122.636,51.342 -74.25,-7.185 -129.504,-73.874 -125.638,-148.37 7.316,-140.962 179.1,-263.28 232.562,-298.038 6.794,-4.416 15.733,0.475 15.733,8.578 v 318.255"
             style="fill:none;stroke:#000000;stroke-width:15;stroke-linecap:round;stroke-linejoin:round;stroke-miterlimit:10;stroke-dasharray:none;stroke-opacity:1"
             id="path1629" /></g><g
           id="g1631"
           transform="translate(304.085,183.7588)"><path
             d="M 0,0 C -26.565,0 -48.1,21.535 -48.1,48.1"
             style="fill:none;stroke:#000000;stroke-width:15;stroke-linecap:round;stroke-linejoin:round;stroke-miterlimit:10;stroke-dasharray:none;stroke-opacity:1"
             id="path1633" /></g><g
           id="g1635"
           transform="translate(386.7559,307.5151)"><path
             d="M 0,0 C -26.564,0 -48.1,21.535 -48.1,48.1"
             style="fill:none;stroke:#000000;stroke-width:15;stroke-linecap:round;stroke-linejoin:round;stroke-miterlimit:10;stroke-dasharray:none;stroke-opacity:1"
             id="path1637" /></g><g
           id="g1639"
           transform="translate(348.3726,275.4487)"><path
             d="M 0,0 C -4.072,14.966 -0.61,30.205 8.078,41.685"
             style="fill:none;stroke:#000000;stroke-width:15;stroke-linecap:round;stroke-linejoin:round;stroke-miterlimit:10;stroke-dasharray:none;stroke-opacity:1"
             id="path1641" /></g></g></g></g></svg>
