<svg width="24" height="24" viewBox="0 0 24 24" fill="none" xmlns="http://www.w3.org/2000/svg">
<g clip-path="url(#clip0_8_721)">
<path d="M21.0376 0H12.0001C10.3638 0 9.0376 1.32385 9.0376 2.96246V16.5187C9.0376 17.0938 9.69714 17.4302 10.1626 17.0812L12.9875 14.9625H21.0376C22.6738 14.9625 24.0001 13.6386 24.0001 12V2.96246C24.0001 1.32623 22.6762 0 21.0376 0ZM15.8156 11.1969H12.7532C12.3648 11.1969 12.05 10.8821 12.05 10.4938C12.05 10.1054 12.3648 9.79065 12.7532 9.79065H15.8156C16.204 9.79065 16.5187 10.1054 16.5187 10.4938C16.5187 10.8821 16.204 11.1969 15.8156 11.1969ZM20.2845 8.18445H12.7532C12.3648 8.18445 12.05 7.86951 12.05 7.48132C12.05 7.09296 12.3648 6.7782 12.7532 6.7782H20.2845C20.6727 6.7782 20.9876 7.09296 20.9876 7.48132C20.9876 7.86951 20.6729 8.18445 20.2845 8.18445ZM20.2845 5.17181H12.7532C12.3648 5.17181 12.05 4.85706 12.05 4.46869C12.05 4.08051 12.3648 3.76556 12.7532 3.76556H20.2845C20.6727 3.76556 20.9876 4.08051 20.9876 4.46869C20.9876 4.85706 20.6729 5.17181 20.2845 5.17181Z" fill="#828282"/>
<path d="M7.79236 14.6202C7.79236 16.4559 6.30426 17.944 4.46863 17.944C2.633 17.944 1.1449 16.4559 1.1449 14.6202C1.1449 12.7844 2.633 11.2963 4.46863 11.2963C6.30426 11.2963 7.79236 12.7844 7.79236 14.6202Z" fill="#828282"/>
<path d="M4.46869 17.944C2.00079 17.944 0 19.9448 0 22.4127V23.2969C0 23.6852 0.314758 24 0.703125 24H8.23444C8.62262 24 8.93756 23.6852 8.93756 23.2969V22.4127C8.93756 19.9448 6.93677 17.944 4.46869 17.944Z" fill="#828282"/>
</g>
<defs>
<clipPath id="clip0_8_721">
<rect width="24" height="24" fill="white"/>
</clipPath>
</defs>
</svg>
