<svg width="32" height="32" viewBox="0 0 32 32" fill="none" xmlns="http://www.w3.org/2000/svg">
<path d="M14.1016 23.3887C15.8945 23.3887 17.582 22.873 19.0117 21.9824L23.8398 26.8105C24.2266 27.1973 24.7539 27.3848 25.293 27.3848C26.4297 27.3848 27.2852 26.5059 27.2852 25.3691C27.2852 24.8535 27.1094 24.3379 26.7109 23.9512L21.9297 19.1582C22.9141 17.6699 23.4766 15.9004 23.4766 14.002C23.4766 8.8457 19.2578 4.61523 14.1016 4.61523C8.94531 4.61523 4.71484 8.83398 4.71484 14.002C4.71484 19.1582 8.94531 23.3887 14.1016 23.3887ZM14.1016 20.5293C10.5039 20.5293 7.5625 17.5879 7.5625 14.002C7.5625 10.416 10.5039 7.47461 14.1016 7.47461C17.6875 7.47461 20.6289 10.416 20.6289 14.002C20.6289 17.5879 17.6875 20.5293 14.1016 20.5293Z" fill="#828282"/>
</svg>
