<svg width="113" height="112" viewBox="0 0 113 112" fill="none" xmlns="http://www.w3.org/2000/svg">
<g clip-path="url(#clip0_131_854)">
<path d="M98.1252 69.9701L90.8474 62.6923C90.0578 61.9026 89.5107 60.8983 89.2726 59.8186L95.5904 53.5008C95.6822 53.409 95.7563 53.3058 95.8126 53.1962C97.5642 50.8811 97.385 47.5604 95.275 45.4511C94.158 44.3341 92.6737 43.7192 91.0938 43.7192C91.026 43.7192 90.9583 43.7218 90.8911 43.7243C91.3692 41.7796 90.8506 39.638 89.3346 38.1214C88.1619 36.9486 86.6155 36.3737 85.0755 36.3939C85.6384 34.3992 85.1375 32.1645 83.5709 30.5979C82.5679 29.5949 81.2906 29.0287 79.9779 28.8983C80.4142 28.0643 80.6466 27.1316 80.6466 26.1634C80.6466 24.5834 80.0317 23.0985 78.9147 21.9821C77.7977 20.8651 76.3127 20.2502 74.7334 20.2502C73.1542 20.2502 71.6692 20.8651 70.5522 21.9821L68.6088 23.9249L64.2572 19.7645C62.9027 18.4695 61.1252 17.7559 59.2514 17.7559H48.9493C47.2079 17.7559 45.7907 19.173 45.7907 20.9144C45.7907 21.8352 45.9262 22.7249 46.1751 23.5671C44.4653 23.3917 42.6935 23.9565 41.3859 25.2642C40.2689 26.3812 39.654 27.8661 39.654 29.4454C39.654 30.1755 39.787 30.8854 40.039 31.5484C38.5591 31.6136 37.1768 32.2196 36.1231 33.274C34.5438 34.8526 34.0467 37.1101 34.6305 39.1169C33.1025 39.1061 31.5707 39.6811 30.4068 40.845C28.6762 42.5756 28.245 45.1212 29.1125 47.2577C27.7124 47.3369 26.3358 47.9093 25.2681 48.9764C23.0524 51.1927 22.9676 54.7432 25.011 57.0628C24.9287 57.7264 24.8603 58.3913 24.8071 59.0455C24.6957 60.4171 24.0954 61.7127 23.1151 62.6923L15.8373 69.9701C15.6094 70.198 15.4814 70.5071 15.4814 70.83C15.4814 71.1523 15.6094 71.4613 15.8373 71.6893L20.4467 76.2986C20.6841 76.5361 20.9957 76.6545 21.3066 76.6545C21.6175 76.6545 21.9284 76.5361 22.1659 76.2986C22.6408 75.8237 22.6408 75.0543 22.1659 74.58L18.4159 70.83L24.8344 64.4115C26.2091 63.0368 27.0558 61.2213 27.2248 59.295L27.7738 59.8446C28.9263 60.9971 30.441 61.5733 31.9551 61.5733C33.4692 61.5733 34.9839 60.9971 36.1364 59.844C37.3402 58.6408 37.9139 57.0432 37.8607 55.4632C38.321 55.5766 38.7985 55.6355 39.2848 55.6355C40.8641 55.6355 42.3491 55.0206 43.4661 53.9036C44.6376 52.7315 45.2126 51.187 45.1936 49.6482C45.7122 49.7945 46.2542 49.8718 46.8083 49.8718C48.3876 49.8718 49.8726 49.2569 50.9896 48.1398C51.9933 47.1362 52.56 45.8577 52.6892 44.5443C53.5428 44.9889 54.4832 45.2111 55.4235 45.2111C56.9376 45.2111 58.4517 44.6349 59.6041 43.4824H59.6048C61.6983 41.3889 61.8901 38.103 60.1817 35.7905L72.2714 23.7007C72.9287 23.0428 73.8032 22.6805 74.7334 22.6805C75.6637 22.6805 76.5382 23.0428 77.1955 23.7007C78.5531 25.0584 78.5531 27.2677 77.1955 28.6254L64.8879 40.933C64.4452 41.375 64.4161 42.1064 64.8233 42.5819C65.278 43.1126 66.1126 43.1461 66.6071 42.6516L77.0777 32.181C78.4442 30.9646 80.5428 31.0076 81.8517 32.3165C83.2093 33.6742 83.2093 35.8835 81.8517 37.2412L72.9541 46.1388C72.6533 46.4402 72.3506 46.7391 72.0517 47.0418C71.4799 47.6193 71.573 48.6046 72.3151 48.9998C72.7812 49.248 73.372 49.1587 73.7456 48.7858L82.692 39.8394C83.3493 39.1821 84.2238 38.8199 85.1534 38.8199C86.083 38.8199 86.9575 39.1821 87.6154 39.84C88.9731 41.1977 88.9731 43.4064 87.6154 44.7641L79.5973 52.7821C79.1547 53.2247 79.125 53.9561 79.5328 54.4317C79.9874 54.9623 80.822 54.9953 81.3166 54.5014L88.8065 47.0108C89.441 46.4554 90.2433 46.1496 91.0938 46.1496C92.024 46.1496 92.8985 46.5118 93.5558 47.1691C94.9141 48.5268 94.9141 50.7361 93.5558 52.0938L87.7294 57.9208H87.7287C87.7116 57.9379 87.6958 57.955 87.68 57.9728L83.7197 61.933C83.2701 62.3826 83.2486 63.1254 83.671 63.6003C84.1288 64.1158 84.9507 64.1399 85.439 63.6523L87.3437 61.7475C87.7585 62.7379 88.3683 63.651 89.1282 64.4109L95.5467 70.8294L81.1507 85.2254C80.6757 85.7003 80.6757 86.4697 81.1507 86.9446C81.3881 87.1821 81.6991 87.3005 82.01 87.3005C82.3209 87.3005 82.6324 87.1821 82.8699 86.9446L98.1252 71.6887C98.3532 71.4607 98.4817 71.1517 98.4817 70.8294C98.4811 70.5071 98.3532 70.198 98.1252 69.9701ZM34.4178 58.1254C33.0601 59.483 30.8507 59.483 29.4931 58.1254L26.9874 55.6196C25.6297 54.262 25.6297 52.0533 26.9874 50.6956C28.2918 49.3911 30.3784 49.3436 31.7449 50.5443L34.5704 53.3698C35.7691 54.7356 35.721 56.8215 34.4178 58.1254ZM41.7469 52.1843C41.0896 52.8416 40.2151 53.2038 39.2848 53.2038C38.3552 53.2038 37.4807 52.8416 36.8228 52.1843L36.3789 51.7398C36.301 51.6524 36.2206 51.5657 36.1364 51.4814C36.0984 51.4434 36.0579 51.4099 36.0167 51.3776L33.7351 49.096C33.7028 49.0549 33.6693 49.0143 33.6313 48.9764C33.5477 48.8928 33.4616 48.813 33.3742 48.7351L32.1267 47.4876C30.7691 46.13 30.7691 43.9212 32.1267 42.5636C33.4844 41.2059 35.6931 41.2059 37.0508 42.5636C37.0514 42.5636 37.0514 42.5642 37.0514 42.5642L41.7475 47.2596C43.1045 48.6179 43.1045 50.8267 41.7469 52.1843ZM49.2703 46.4212C47.9133 47.7789 45.704 47.7789 44.3463 46.4212L37.8423 39.9173C36.484 38.5596 36.484 36.3502 37.8423 34.9926C38.4996 34.3346 39.3741 33.9724 40.3043 33.9724C41.1649 33.9724 41.9755 34.2859 42.6125 34.8533L49.4033 41.6441C50.6223 43.01 50.5805 45.1104 49.2703 46.4212ZM57.8855 41.7631C56.5279 43.1208 54.3185 43.1208 52.9609 41.7631L51.2195 40.0217C51.1454 39.9388 51.0694 39.8571 50.9896 39.778C50.9535 39.7419 50.9155 39.7096 50.8769 39.6792L44.5838 33.3867C44.5534 33.3474 44.5211 33.3094 44.4856 33.274C44.4058 33.1942 44.3241 33.1182 44.2412 33.0441L43.1045 31.9074C42.4472 31.2495 42.085 30.375 42.085 29.4454C42.085 28.5152 42.4472 27.6407 43.1052 26.9828C43.784 26.3046 44.6756 25.9645 45.5672 25.9645C46.4588 25.9645 47.3504 26.3039 48.0292 26.9828L48.1926 27.1468C48.3901 27.364 48.5979 27.5723 48.8157 27.7692L57.8849 36.8391C59.2432 38.1968 59.2432 40.4055 57.8855 41.7631ZM58.5093 34.0244L54.7105 30.2256L57.384 30.6555C57.7095 31.3648 58.2946 32.5078 59.0634 33.4696L58.5093 34.0244ZM60.7965 31.7371C60.1202 30.8157 59.5662 29.6183 59.3673 29.1161C59.2096 28.7159 58.8531 28.4291 58.4289 28.3607L53.9557 27.6426C52.6012 27.4248 51.3987 26.8257 50.4488 25.9639L49.9935 25.5092C48.8853 24.2934 48.2217 22.6774 48.2217 20.9138C48.2217 20.513 48.5485 20.1869 48.9493 20.1869H59.2514C60.4964 20.1869 61.6774 20.6605 62.5772 21.5211L66.8895 25.6441L60.7965 31.7371Z" fill="#FAFAFA"/>
<path d="M77.7111 88.6639L74.0966 92.2785L67.718 85.8999C66.1951 84.3769 64.2466 83.2916 62.1531 82.7862C68.9401 79.9645 73.6774 75.4059 74.2036 74.886C74.2055 74.8841 74.2068 74.8828 74.208 74.8815C74.2226 74.8676 74.2346 74.8556 74.2422 74.848L81.9994 67.0908C82.4743 66.6159 82.4743 65.8465 81.9994 65.3716C81.5251 64.8966 80.7551 64.8966 80.2802 65.3716L72.523 73.1287C72.5205 73.1313 72.5103 73.1414 72.4951 73.1566C72.0981 73.5429 67.6825 77.7564 61.4863 80.4154C59.9653 81.0676 58.3917 81.6033 56.7788 81.9789C55.7289 82.2239 54.6499 82.4044 53.5493 82.5013C50.7871 82.7432 48.1921 83.9501 46.2424 85.8999L39.8638 92.2785L25.6033 78.018C25.1284 77.543 24.359 77.543 23.884 78.018C23.4097 78.4923 23.4097 79.2623 23.884 79.7366L39.0045 94.857C39.4724 95.325 40.2558 95.325 40.7237 94.857L47.9616 87.6191C49.508 86.0727 51.5679 85.1153 53.7621 84.9228C54.8633 84.8259 55.941 84.6549 56.9903 84.4263C58.0675 84.6612 59.1459 84.8303 60.1989 84.9228C62.3931 85.1146 64.453 86.0727 65.9994 87.6191L73.2373 94.857C73.7052 95.325 74.4886 95.325 74.9565 94.857L79.4303 90.3825C79.9053 89.9083 79.9053 89.1382 79.4303 88.6639C78.9554 88.1896 78.186 88.1896 77.7111 88.6639Z" fill="#FAFAFA"/>
</g>
<circle cx="56.4814" cy="56" r="54" stroke="#FAFAFA" stroke-width="4"/>
<defs>
<clipPath id="clip0_131_854">
<rect width="83" height="83" fill="white" transform="translate(15.4814 15)"/>
</clipPath>
</defs>
</svg>
